{
  "accessors": [
    {
      "bufferView": 2,
      "componentType": 5126,
      "count": 58126,
      "max": [
        1.0584100484848022,
        1.0267820358276367,
        5.453301906585693
      ],
      "min": [
        -1.1421159505844116,
        -1.040452003479004,
        -0.00470300018787384
      ],
      "type": "VEC3"
    },
    {
      "bufferView": 2,
      "byteOffset": 697512,
      "componentType": 5126,
      "count": 58126,
      "max": [
        0.9999618530273438,
        0.9999567270278931,
        0.999983549118042
      ],
      "min": [
        -0.9999951124191284,
        -0.9999275207519531,
        -0.9999603033065796
      ],
      "type": "VEC3"
    },
    {
      "bufferView": 3,
      "componentType": 5126,
      "count": 58126,
      "max": [
        0.9999310970306396,
        0.9999169707298279,
        0.9999834895133972,
        1.0
      ],
      "min": [
        -0.9999760985374451,
        -0.9999523758888245,
        -0.9999765157699585,
        -1.0
      ],
      "type": "VEC4"
    },
    {
      "bufferView": 1,
      "componentType": 5126,
      "count": 58126,
      "max": [
        0.9956920146942139,
        0.9968119859695435
      ],
      "min": [
        0.0039059999398887157,
        0.00458399998024106
      ],
      "type": "VEC2"
    },
    {
      "bufferView": 0,
      "componentType": 5125,
      "count": 58128,
      "type": "SCALAR"
    }
  ],
  "asset": {
    "extras": {
      "author": "fuzzelhjb (https://sketchfab.com/fuzzelhjb)",
      "license": "CC-BY-4.0 (http://creativecommons.org/licenses/by/4.0/)",
      "source": "https://sketchfab.com/3d-models/deadpool-low-8ded87c19e8c491ca58fe6a956926ab9",
      "title": "deadpool_low"
    },
    "generator": "Sketchfab-12.66.0",
    "version": "2.0"
  },
  "bufferViews": [
    {
      "buffer": 0,
      "byteLength": 232512,
      "name": "floatBufferViews",
      "target": 34963
    },
    {
      "buffer": 0,
      "byteLength": 465008,
      "byteOffset": 232512,
      "byteStride": 8,
      "name": "floatBufferViews",
      "target": 34962
    },
    {
      "buffer": 0,
      "byteLength": 1395024,
      "byteOffset": 697520,
      "byteStride": 12,
      "name": "floatBufferViews",
      "target": 34962
    },
    {
      "buffer": 0,
      "byteLength": 930016,
      "byteOffset": 2092544,
      "byteStride": 16,
      "name": "floatBufferViews",
      "target": 34962
    }
  ],
  "buffers": [
    {
      "byteLength": 3022560,
      "uri": "scene.bin"
    }
  ],
  "extensionsRequired": [
    "KHR_materials_pbrSpecularGlossiness"
  ],
  "extensionsUsed": [
    "KHR_materials_pbrSpecularGlossiness"
  ],
  "images": [
    {
      "uri": "textures/deadpool_low_diffuse.jpeg"
    },
    {
      "uri": "textures/deadpool_low_normal.png"
    }
  ],
  "materials": [
    {
      "doubleSided": true,
      "extensions": {
        "KHR_materials_pbrSpecularGlossiness": {
          "diffuseFactor": [
            1.0,
            1.0,
            1.0,
            1.0
          ],
          "diffuseTexture": {
            "index": 0
          },
          "glossinessFactor": 0.0,
          "specularFactor": [
            0.0,
            0.0,
            0.0
          ]
        }
      },
      "name": "deadpool_low",
      "normalTexture": {
        "index": 1
      }
    }
  ],
  "meshes": [
    {
      "name": "Object_0",
      "primitives": [
        {
          "attributes": {
            "NORMAL": 1,
            "POSITION": 0,
            "TANGENT": 2,
            "TEXCOORD_0": 3
          },
          "indices": 4,
          "material": 0,
          "mode": 4
        }
      ]
    }
  ],
  "nodes": [
    {
      "children": [
        1
      ],
      "matrix": [
        1.0,
        0.0,
        0.0,
        0.0,
        0.0,
        2.220446049250313e-16,
        -1.0,
        0.0,
        0.0,
        1.0,
        2.220446049250313e-16,
        0.0,
        0.0,
        0.0,
        0.0,
        1.0
      ],
      "name": "Sketchfab_model"
    },
    {
      "children": [
        2
      ],
      "name": "deadpool_low.obj.cleaner.materialmerger.gles"
    },
    {
      "mesh": 0,
      "name": "Object_2"
    }
  ],
  "samplers": [
    {
      "magFilter": 9729,
      "minFilter": 9987,
      "wrapS": 10497,
      "wrapT": 10497
    }
  ],
  "scene": 0,
  "scenes": [
    {
      "name": "Sketchfab_Scene",
      "nodes": [
        0
      ]
    }
  ],
  "textures": [
    {
      "sampler": 0,
      "source": 0
    },
    {
      "sampler": 0,
      "source": 1
    }
  ]
}
