<?xml version="1.0" standalone="no"?>
<!DOCTYPE svg PUBLIC "-//W3C//DTD SVG 20010904//EN"
 "http://www.w3.org/TR/2001/REC-SVG-20010904/DTD/svg10.dtd">
<svg version="1.0" xmlns="http://www.w3.org/2000/svg"
 width="600.000000pt" height="600.000000pt" viewBox="0 0 600.000000 600.000000"
 preserveAspectRatio="xMidYMid meet">

<g transform="translate(0.000000,600.000000) scale(0.100000,-0.100000)"
fill="#000000" stroke="none">
<path d="M1563 5342 c3 -119 11 -377 16 -572 23 -784 31 -1123 27 -1127 -2 -2
-37 -5 -77 -7 -43 -2 -75 -8 -77 -15 -2 -6 -8 -9 -13 -6 -5 4 -6 -1 -3 -9 4
-11 -3 -19 -23 -28 -55 -23 -163 -93 -163 -105 0 -16 15 -17 42 -2 11 6 22 8
25 6 3 -3 -10 -13 -27 -22 -33 -17 -33 -17 -26 -78 3 -33 8 -62 10 -64 2 -2
43 14 91 37 60 27 83 34 72 22 -10 -10 -23 -19 -30 -19 -10 0 -140 -74 -156
-89 -3 -3 0 -9 5 -14 6 -6 47 8 114 40 109 52 167 62 224 40 24 -9 26 -14 26
-69 l0 -59 75 -11 c42 -6 87 -11 100 -11 41 0 76 -22 82 -52 5 -26 8 -28 58
-28 58 0 79 -15 73 -52 -3 -21 -10 -24 -73 -30 -135 -15 -130 -15 -133 10 -2
12 -8 20 -13 16 -14 -8 -39 15 -39 37 0 22 -12 24 -39 7 -20 -12 -56 -4 -47
11 5 8 -29 23 -36 16 -2 -2 -1 -33 0 -69 4 -65 4 -66 33 -66 22 0 27 4 23 18
-4 10 -2 13 3 7 17 -20 51 -33 108 -40 58 -8 95 -31 95 -60 0 -11 13 -15 54
-15 61 0 82 -16 72 -54 -5 -22 -12 -24 -78 -29 -40 -3 -84 -7 -98 -9 -19 -2
-26 2 -28 18 -2 16 -8 20 -22 17 -22 -6 -49 35 -31 47 7 4 -12 8 -41 9 -29 1
-61 4 -70 7 -16 5 -18 -2 -18 -55 l0 -61 -57 0 c-33 0 -69 -7 -83 -15 -14 -8
-34 -18 -45 -22 -46 -16 -175 -85 -175 -94 0 -11 7 -11 49 1 48 13 50 5 5 -18
l-38 -19 3 -64 c1 -35 4 -65 6 -67 3 -3 126 31 161 45 8 3 14 0 14 -7 0 -6 -4
-9 -8 -6 -4 2 -50 -16 -102 -41 -103 -49 -106 -63 -9 -39 34 9 64 15 66 13 2
-2 -27 -15 -64 -29 l-68 -25 -3 -50 c-2 -35 -9 -56 -22 -68 -26 -23 -25 -51 0
-72 24 -21 26 -56 5 -73 -19 -16 -20 -64 -1 -79 24 -20 26 -51 5 -69 -24 -21
-24 -47 1 -79 11 -14 20 -33 20 -42 0 -9 -9 -24 -20 -34 -25 -21 -25 -38 0
-70 25 -32 25 -42 0 -67 -22 -22 -18 -44 12 -73 24 -23 23 -59 -2 -75 -26 -16
-26 -54 0 -77 26 -23 26 -67 0 -83 -26 -16 -26 -44 0 -67 11 -10 20 -26 20
-37 0 -10 -9 -27 -20 -38 -26 -26 -25 -33 5 -66 30 -32 32 -69 5 -84 -26 -14
-26 -60 0 -83 26 -22 26 -63 0 -77 -26 -14 -26 -52 0 -75 21 -19 29 -85 10
-85 -5 0 -14 -10 -21 -21 -9 -18 -7 -27 10 -50 25 -33 28 -84 6 -93 -24 -9
-18 -53 10 -72 16 -10 27 -30 32 -57 l9 -42 67 -3 67 -3 0 108 c0 59 -9 454
-20 878 -11 424 -20 827 -20 897 0 121 1 127 21 133 13 4 17 10 11 14 -6 3 24
7 66 9 42 1 83 -2 91 -7 15 -10 17 -61 41 -891 6 -217 15 -532 20 -700 6 -168
10 -336 10 -374 l0 -69 231 5 c126 3 233 9 236 12 4 3 -1 212 -11 464 -9 251
-28 750 -41 1107 -14 358 -32 832 -40 1055 -14 370 -60 1577 -68 1780 -2 47
-7 92 -11 102 -6 14 7 12 99 -11 93 -23 109 -30 121 -53 15 -29 0 -53 -17 -27
-7 12 -9 11 -10 -1 0 -10 -3 -8 -9 5 -6 14 -9 15 -10 5 0 -11 -3 -11 -11 4 -9
15 -13 16 -20 5 -7 -11 -9 -9 -9 6 0 17 -2 17 -10 5 -9 -13 -10 -13 -10 0 0
13 -1 13 -10 0 -8 -12 -10 -12 -11 5 l0 20 -9 -20 c-8 -18 -9 -18 -10 5 -1 23
-2 23 -10 5 l-9 -20 -1 20 -1 20 -8 -20 -8 -20 -5 20 c-4 19 -4 19 -10 -2 -5
-20 -1 -24 30 -31 249 -60 662 -157 752 -178 126 -29 209 -58 300 -104 37 -19
61 -26 65 -19 4 6 19 7 36 4 127 -28 -167 149 -334 201 -50 16 -57 21 -53 39
4 11 11 51 16 89 6 39 12 72 15 74 15 15 272 -99 387 -171 29 -18 67 -37 83
-43 17 -5 30 -15 30 -21 0 -6 3 -15 7 -19 11 -10 41 65 35 88 -3 10 -1 18 4
18 17 0 20 -48 5 -85 -19 -43 -19 -45 -8 -45 13 0 32 47 32 76 0 14 4 22 10
19 15 -9 12 -52 -6 -86 -8 -17 -13 -33 -10 -37 10 -9 35 30 42 66 5 24 9 30
15 21 10 -17 2 -56 -18 -87 -8 -13 -12 -27 -8 -30 9 -10 35 28 42 61 3 15 9
27 14 27 16 0 10 -39 -12 -81 -13 -26 -16 -40 -8 -37 14 5 24 19 41 63 11 28
12 29 16 7 2 -13 -6 -41 -18 -63 -13 -27 -16 -40 -8 -37 7 2 23 24 36 48 21
41 22 42 22 16 0 -16 -9 -43 -20 -62 -12 -18 -17 -35 -11 -38 9 -6 43 42 53
73 4 12 5 12 11 -1 3 -10 -5 -37 -19 -63 -29 -56 -9 -56 22 -1 13 23 24 34 29
27 3 -7 -5 -31 -19 -56 -14 -24 -22 -46 -17 -50 5 -3 21 13 34 36 14 23 28 36
31 30 7 -11 -17 -66 -34 -76 -13 -8 -13 -25 0 -25 5 0 20 16 33 35 13 19 26
32 30 29 8 -8 -2 -34 -25 -63 -20 -27 -23 -41 -8 -41 6 0 21 17 33 37 17 30
23 34 25 19 2 -10 -5 -31 -17 -47 -34 -46 -23 -57 14 -15 30 33 35 36 35 18 0
-11 -11 -34 -25 -50 -14 -17 -21 -33 -16 -36 5 -4 23 11 40 31 20 25 31 32 31
21 0 -9 -11 -30 -25 -46 -14 -17 -25 -35 -25 -41 0 -20 18 -11 44 22 22 28 26
29 26 11 0 -11 -11 -31 -25 -44 -14 -13 -25 -27 -25 -32 0 -18 27 -6 52 24 20
24 28 28 28 16 0 -9 -11 -30 -25 -46 -37 -45 -30 -61 10 -22 32 31 35 32 35
13 0 -12 -11 -30 -25 -41 -24 -19 -33 -42 -17 -42 5 0 19 11 32 25 13 14 27
25 32 25 17 0 7 -23 -24 -51 -20 -19 -28 -33 -21 -40 6 -6 18 0 33 16 13 14
27 25 32 25 16 0 7 -18 -23 -48 -29 -28 -30 -31 -16 -58 20 -40 82 -232 106
-329 24 -94 64 -315 59 -321 -2 -2 -37 -9 -77 -16 -53 -9 -74 -9 -79 -1 -4 6
-7 -102 -7 -240 0 -216 -3 -264 -20 -337 -20 -88 -24 -185 -7 -202 18 -18 52
222 52 369 l0 82 42 11 c40 11 92 8 114 -8 14 -10 1 -289 -20 -407 -18 -102
-56 -241 -86 -310 -11 -26 -20 -48 -20 -50 0 -1 12 -6 27 -9 17 -5 29 -3 34 6
6 9 9 7 9 -7 0 -12 5 -26 12 -33 22 -22 1 -23 -33 -3 -34 21 -69 28 -69 14 1
-5 20 -17 43 -28 23 -11 43 -28 45 -38 3 -15 -2 -14 -34 8 -37 25 -74 33 -74
16 0 -5 12 -12 28 -16 32 -8 62 -33 62 -51 0 -9 -12 -5 -36 11 -38 26 -74 33
-74 15 0 -5 8 -10 19 -10 25 0 71 -37 71 -57 0 -13 -4 -12 -23 5 -27 25 -87
46 -87 31 0 -5 12 -14 27 -20 36 -13 63 -38 63 -57 0 -12 -5 -11 -22 5 -42 38
-98 57 -98 33 0 -5 9 -10 21 -10 22 0 79 -51 79 -71 0 -7 -13 -1 -28 14 -29
28 -92 53 -92 37 0 -5 9 -11 19 -15 31 -9 71 -45 71 -63 0 -12 -7 -9 -28 11
-15 15 -42 29 -59 33 -25 5 -34 2 -47 -18 -16 -22 -16 -23 6 -26 28 -4 78 -50
78 -71 0 -10 -11 -5 -32 16 -59 57 -75 57 -138 1 -57 -51 -155 -113 -225 -143
-73 -30 -223 -64 -315 -71 l-90 -7 0 74 c0 41 -3 84 -6 97 -6 21 -4 22 67 22
41 0 104 7 142 15 116 24 295 120 357 191 l25 29 -24 -20 c-13 -11 -35 -30
-49 -43 -14 -12 -31 -22 -38 -22 -8 0 -14 -4 -14 -10 0 -5 -4 -10 -10 -10 -5
0 -9 15 -8 33 1 18 -4 42 -10 54 -15 27 -15 33 -2 33 6 0 19 -19 30 -43 12
-27 19 -35 19 -22 1 11 -6 33 -14 49 -16 30 -12 47 6 29 6 -6 17 -28 24 -49
13 -36 14 -37 15 -11 0 15 -7 42 -16 59 -12 23 -13 29 -2 26 7 -2 21 -20 30
-39 17 -32 18 -33 18 -8 0 14 -7 34 -15 45 -18 24 -19 35 -1 28 8 -3 21 -20
30 -37 10 -21 16 -26 16 -14 0 10 -7 31 -15 47 -21 41 0 38 25 -2 16 -27 20
-29 20 -12 0 11 -7 29 -15 40 -17 23 -19 34 -5 34 6 0 19 -15 30 -32 14 -24
20 -28 20 -15 0 11 -9 32 -21 48 -27 39 -8 37 25 -2 31 -37 36 -14 5 25 -29
37 -13 48 17 13 19 -22 24 -24 24 -11 0 10 -10 28 -22 41 -28 30 -3 31 29 1
29 -27 30 -10 2 26 -28 35 -16 46 16 16 30 -29 33 -13 4 24 -27 35 -20 42 14
15 33 -25 35 -10 4 27 l-23 27 -27 -44 c-53 -89 -182 -204 -282 -250 -168 -79
-279 -85 -760 -40 -175 17 -320 29 -322 27 -2 -2 31 -839 57 -1416 5 -129 10
-254 10 -277 l0 -43 221 0 222 0 -6 82 c-14 181 -50 988 -45 993 2 3 71 1 151
-5 370 -25 637 58 856 265 219 207 341 479 392 875 17 124 16 527 0 655 -83
650 -274 1106 -615 1463 -184 192 -398 330 -643 416 -79 27 -755 212 -1307
357 l-69 18 6 -217z m471 -75 c3 3 6 1 6 -6 0 -7 5 -9 10 -6 6 3 10 0 10 -7 0
-9 3 -9 10 2 7 11 10 11 10 2 0 -7 5 -10 10 -7 6 3 10 0 10 -7 0 -9 3 -9 10 2
8 12 10 12 10 -5 0 -17 2 -17 10 -5 8 13 10 13 10 1 0 -11 3 -12 12 -3 16 16
44 -2 52 -34 5 -17 3 -30 -5 -35 -13 -8 -11 -9 191 -59 100 -25 129 -29 148
-20 20 9 23 8 19 -5 -4 -10 2 -17 18 -21 23 -6 25 -11 25 -69 0 -64 -26 -123
-60 -133 -8 -3 -12 -1 -7 3 6 8 -653 173 -693 175 -13 0 -14 -35 -8 -282 4
-155 6 -283 5 -284 -1 -1 -39 -3 -83 -5 l-81 -4 -6 100 c-4 55 -10 238 -13
408 l-7 307 39 0 c21 0 99 -16 172 -34 145 -37 139 -38 132 27 -1 15 2 17 18
8 11 -6 22 -7 26 -4z m-57 -43 c-3 -3 -12 -4 -19 -1 -8 3 -5 6 6 6 11 1 17 -2
13 -5z m683 -179 c-11 -13 -8 -15 14 -15 25 0 26 -2 26 -62 0 -62 -22 -128
-45 -135 -6 -2 -19 3 -28 10 -15 10 -16 17 -7 41 6 16 13 62 17 102 4 56 10
74 21 74 12 0 12 -3 2 -15z m96 -20 c-3 -10 3 -17 19 -21 23 -6 25 -11 25 -69
0 -48 -5 -70 -22 -95 -21 -30 -61 -59 -44 -31 4 6 0 11 -9 11 -11 0 -15 6 -11
18 14 47 26 111 26 148 0 37 6 54 18 54 2 0 2 -7 -2 -15z m-773 -92 c-7 -2
-21 -2 -30 0 -10 3 -4 5 12 5 17 0 24 -2 18 -5z m-83 -18 c-7 -9 -15 -13 -17
-11 -7 7 7 26 19 26 6 0 6 -6 -2 -15z m-9 -498 c-1 -12 -15 -9 -19 4 -3 6 1
10 8 8 6 -3 11 -8 11 -12z m-49 -24 c13 -12 15 -19 7 -29 -6 -7 -9 -22 -7 -34
3 -20 -2 -21 -85 -23 l-87 -2 0 42 c0 23 5 45 12 49 42 26 130 24 160 -3z m58
-129 c0 -14 -3 -14 -15 -4 -8 7 -15 14 -15 16 0 2 7 4 15 4 8 0 15 -7 15 -16z
m-73 -10 c27 -7 31 -19 26 -64 l-5 -35 -84 -1 -84 0 0 42 c0 30 5 46 18 53 19
11 94 14 129 5z m81 -143 c3 -8 -1 -12 -9 -9 -7 2 -15 10 -17 17 -3 8 1 12 9
9 7 -2 15 -10 17 -17z m-82 -11 l29 -10 3 -143 c1 -78 -2 -155 -7 -172 -11
-35 -11 -32 -14 100 l-2 100 -50 0 c-27 0 -62 -3 -77 -8 l-28 -7 0 65 c0 64 0
64 33 74 44 13 79 13 113 1z m-36 -459 c-15 -29 -29 -35 -27 -12 0 11 4 18 8
15 4 -2 10 0 14 6 11 18 16 10 5 -9z m70 -93 c0 -17 -3 -18 -15 -8 -8 7 -15
21 -15 32 0 17 3 18 15 8 8 -7 15 -21 15 -32z m-263 4 c6 -4 13 -35 16 -69 l5
-63 -58 0 c-31 0 -77 -7 -100 -15 -23 -8 -44 -15 -47 -15 -2 0 -3 28 -1 62 l3
61 44 24 c43 23 114 31 138 15z m390 -58 c7 -10 9 -24 4 -37 -7 -19 -17 -22
-67 -24 -33 -2 -72 -8 -88 -15 -25 -10 -31 -9 -42 6 -16 22 -8 44 20 57 11 6
32 17 46 25 31 18 110 11 127 -12z m-288 -23 c7 -5 9 -11 5 -14 -10 -5 -54 9
-54 18 0 8 34 6 49 -4z m1 -61 c18 -12 2 -12 -25 0 -13 6 -15 9 -5 9 8 0 22
-4 30 -9z m2380 -46 c0 -11 -8 -14 -27 -12 -39 4 -42 28 -4 28 21 0 31 -5 31
-16z m-2210 -41 c0 -8 14 -13 38 -14 71 -2 87 -11 87 -49 l0 -35 -70 -6 c-38
-4 -79 -9 -91 -13 -14 -5 -25 -2 -35 10 -12 15 -11 19 9 33 71 50 68 47 49 68
-9 11 -17 28 -17 39 1 19 1 19 15 0 8 -11 15 -26 15 -33z m2160 -26 l0 -43
-80 -10 -80 -9 0 41 c0 38 3 42 33 52 17 5 53 10 80 11 l47 1 0 -43z m-2327
-24 c-7 -2 -21 -2 -30 0 -10 3 -4 5 12 5 17 0 24 -2 18 -5z m2383 -47 c10 -8
16 -17 12 -21 -9 -10 -61 9 -66 23 -5 17 30 15 54 -2z m-2376 -6 c0 -5 -12
-10 -26 -10 -14 0 -23 4 -19 10 3 6 15 10 26 10 10 0 19 -4 19 -10z m2325 -28
c6 -4 10 -27 10 -52 0 -39 3 -45 25 -50 14 -3 26 -13 28 -22 3 -16 1 -16 -26
-2 -17 8 -33 22 -36 30 -5 13 -20 15 -81 12 l-75 -3 0 38 c0 30 5 40 23 47 27
11 118 13 132 2z m-2329 -142 c8 0 14 -7 14 -15 0 -17 -55 -21 -65 -5 -3 6 1
10 9 10 9 0 16 8 17 18 0 10 3 12 6 5 2 -7 11 -13 19 -13z m22 -201 c-2 -6 -7
-10 -11 -10 -4 1 -16 1 -27 1 -11 0 -20 5 -20 10 0 6 14 10 31 10 17 0 29 -5
27 -11z m2 -58 c0 -5 -13 -11 -30 -13 -30 -5 -41 6 -17 15 20 9 47 8 47 -2z
m93 -38 c-7 -2 -19 -2 -25 0 -7 3 -2 5 12 5 14 0 19 -2 13 -5z m64 -42 c4 -16
15 -19 61 -20 63 0 82 -15 74 -56 -4 -24 -8 -25 -68 -25 -34 0 -75 -5 -90 -10
-19 -7 -30 -7 -40 1 -22 18 -17 28 20 43 37 15 56 38 38 44 -7 2 -17 12 -22
23 -9 15 -7 19 6 19 9 0 18 -9 21 -19z m-257 -30 c5 -11 10 -45 10 -76 l0 -56
-33 6 c-32 6 -121 -5 -159 -20 -16 -6 -18 0 -18 59 l0 67 43 19 c58 27 143 27
157 1z m95 -21 c7 -12 -2 -12 -30 0 -19 8 -19 9 2 9 12 1 25 -3 28 -9z m10
-68 c-14 -14 -43 -7 -42 9 1 14 5 15 24 6 13 -6 21 -13 18 -15z m158 -101 c4
-17 15 -20 68 -23 l64 -3 0 -35 0 -35 -76 -6 c-42 -4 -82 -10 -88 -14 -12 -7
-41 11 -41 25 0 4 18 14 40 23 39 15 56 47 26 47 -18 0 -29 16 -21 30 10 16
22 12 28 -9z m-47 -232 c18 -19 22 -28 11 -24 -9 4 -17 11 -17 16 0 5 -5 8
-12 7 -6 -2 -14 5 -16 15 -5 24 0 22 34 -14z m68 -131 c3 -13 6 -58 6 -100 l0
-78 -85 3 c-47 1 -85 5 -85 10 0 4 17 7 38 7 20 0 54 3 76 7 l38 6 -4 83 c-4
81 3 109 16 62z m1521 -5 c18 -44 22 -92 8 -98 -8 -3 -18 -3 -23 0 -4 3 -10
-2 -14 -10 -11 -30 -21 -14 -18 29 2 24 -2 54 -8 66 -10 18 -9 21 2 18 7 -3
21 -25 31 -49 17 -44 17 -44 14 -9 -2 19 -7 43 -12 53 -4 10 -3 17 3 17 5 0
13 -8 17 -17z m-55 -73 c0 -39 -9 -60 -26 -60 -12 0 -12 4 -4 20 8 14 8 31 0
58 -14 53 -12 60 10 33 11 -13 20 -36 20 -51z m-55 -19 c-6 -5 -23 -12 -40
-16 l-30 -6 30 15 c35 17 53 20 40 7z m494 -37 c17 -14 31 -33 31 -42 0 -12
-8 -8 -30 13 -17 16 -43 35 -58 41 l-27 12 27 1 c15 1 40 -10 57 -25z m-44
-67 c26 -37 16 -51 -13 -19 -16 17 -41 34 -56 38 -19 4 -24 9 -16 14 18 11 68
-8 85 -33z m-1797 -6 c3 -8 -1 -12 -9 -9 -7 2 -15 10 -17 17 -3 8 1 12 9 9 7
-2 15 -10 17 -17z m438 11 c-5 -9 32 -7 57 3 20 8 273 -8 284 -18 13 -13 21
-118 12 -152 l-10 -35 -91 7 -91 6 6 -64 c4 -35 9 -157 13 -271 l7 -208 -87 0
-86 0 0 53 c0 28 -7 183 -15 342 -18 350 -18 345 -4 345 5 0 8 -4 5 -8z m1320
-26 c32 -32 43 -56 26 -56 -5 0 -18 13 -30 30 -12 16 -34 33 -47 36 -30 8 -33
24 -4 24 12 0 36 -15 55 -34z m-865 -16 c10 -37 10 -115 0 -143 -8 -19 -15
-23 -35 -20 -25 5 -26 7 -26 83 0 43 -3 86 -6 95 -6 14 -1 16 27 13 26 -2 35
-9 40 -28z m107 -55 c6 -88 -2 -115 -33 -115 -23 0 -25 4 -25 43 0 23 -3 65
-6 94 -6 48 -5 51 17 55 36 6 43 -6 47 -77z m718 57 c20 -15 44 -52 44 -66 0
-15 -18 -3 -30 20 -8 14 -30 34 -50 44 -32 18 -33 19 -10 19 14 0 35 -7 46
-17z m-1776 -12 c6 -12 10 -38 8 -58 l-3 -37 -80 2 c-44 1 -83 2 -87 2 -5 1
-8 23 -8 50 0 57 2 58 97 60 53 1 64 -2 73 -19z m1749 -17 c29 -27 51 -73 34
-73 -4 1 -17 15 -28 33 -11 18 -30 36 -43 42 -25 11 -29 25 -7 25 8 0 28 -12
44 -27z m-28 -22 c19 -19 29 -39 29 -58 -1 -28 -1 -28 -21 9 -16 32 -45 58
-62 58 -3 0 8 -14 24 -31 17 -18 29 -42 29 -58 0 -24 -2 -23 -25 15 -23 39
-51 61 -63 49 -3 -3 0 -5 6 -5 16 0 54 -67 50 -87 -3 -13 -10 -7 -25 23 -12
22 -34 46 -49 53 l-27 12 29 15 c16 8 33 19 39 25 16 16 36 10 66 -20z m-97
-56 c23 -25 39 -69 28 -79 -3 -3 -14 13 -25 35 -10 22 -28 44 -38 50 -16 8
-15 3 6 -27 21 -31 34 -84 21 -84 -2 0 -14 20 -26 45 -12 24 -30 47 -41 50
-36 12 -18 31 34 34 10 0 28 -10 41 -24z m-1556 -34 c3 -8 -1 -12 -9 -9 -7 2
-15 10 -17 17 -3 8 1 12 9 9 7 -2 15 -10 17 -17z m1469 -7 c-3 -3 -12 -4 -19
-1 -8 3 -5 6 6 6 11 1 17 -2 13 -5z m-1540 -22 c8 -5 14 -63 18 -182 3 -96 8
-205 10 -242 l5 -68 -88 0 -89 0 -6 158 c-10 242 -9 330 6 335 20 8 131 7 144
-1z m-497 -36 c0 -21 -7 -26 -51 -36 -55 -13 -74 -6 -67 26 3 20 34 31 86 33
27 1 32 -2 32 -23z m2 -155 c4 -28 2 -30 -46 -39 -53 -11 -76 -3 -76 24 0 18
18 27 65 35 22 4 43 7 46 8 4 0 9 -12 11 -28z m4 -160 c1 -25 -4 -30 -29 -35
-16 -3 -43 -6 -59 -6 -26 0 -29 3 -26 28 3 23 9 28 43 33 70 11 70 11 71 -20z
m2 -148 c-3 -25 -8 -29 -52 -35 -57 -8 -66 -5 -66 23 0 23 30 37 83 38 36 1
38 -1 35 -26z m577 -23 c3 -5 -1 -10 -9 -10 -8 0 -18 5 -21 10 -3 6 1 10 9 10
8 0 18 -4 21 -10z m660 -21 c4 -6 5 -12 2 -15 -7 -7 -37 7 -37 17 0 13 27 11
35 -2z m-720 -69 l0 -55 -60 -3 c-96 -5 -105 0 -105 57 0 30 5 51 13 55 6 2
44 4 82 3 l70 -2 0 -55z m643 34 c19 -6 22 -13 22 -55 l0 -49 -85 0 -85 0 0
49 c0 46 2 50 28 54 45 7 96 7 120 1z m-1153 -79 c0 -21 -6 -26 -49 -35 -35
-7 -52 -7 -62 1 -36 29 -3 58 66 59 41 0 45 -2 45 -25z m575 -40 c0 -9 -6 -12
-15 -9 -8 4 -15 10 -15 15 0 5 7 9 15 9 8 0 15 -7 15 -15z m660 -20 c0 -9 -6
-12 -15 -9 -8 4 -15 10 -15 15 0 5 7 9 15 9 8 0 15 -7 15 -15z m-716 -46 c3
-17 6 -61 6 -97 0 -85 -18 -71 -22 18 l-3 65 -74 5 c-61 4 -75 8 -77 23 -2 15
7 17 81 17 l83 0 6 -31z m664 -30 c14 -60 16 -153 3 -145 -5 3 -12 37 -16 76
l-7 70 -74 0 c-66 0 -74 2 -74 19 0 22 18 28 101 30 l56 1 11 -51z"/>
<path d="M2162 5205 c0 -16 2 -22 5 -12 2 9 2 23 0 30 -3 6 -5 -1 -5 -18z"/>
<path d="M2182 5200 c0 -14 2 -19 5 -12 2 6 2 18 0 25 -3 6 -5 1 -5 -13z"/>
<path d="M2121 5194 c0 -11 3 -14 6 -6 3 7 2 16 -1 19 -3 4 -6 -2 -5 -13z"/>
<path d="M2141 5194 c0 -11 3 -14 6 -6 3 7 2 16 -1 19 -3 4 -6 -2 -5 -13z"/>
<path d="M1267 5365 l-88 -77 7 -362 c6 -283 10 -366 21 -383 10 -14 11 -23 4
-28 -16 -9 -13 -51 4 -65 8 -7 15 -20 15 -30 0 -10 -7 -23 -15 -30 -19 -16
-19 -44 0 -60 19 -16 19 -37 0 -47 -13 -8 -14 -55 -7 -390 4 -210 10 -384 13
-387 3 -3 48 17 101 45 l95 50 -8 42 c-4 23 -15 391 -24 817 -9 426 -20 822
-24 879 l-6 103 -88 -77z m86 -785 c3 -10 0 -25 -7 -33 -22 -28 -85 -69 -96
-62 -22 14 -8 45 38 79 55 41 58 42 65 16z m-33 -183 c-41 -39 -72 -45 -78
-15 -2 10 17 31 50 57 52 39 53 40 61 18 7 -18 1 -29 -33 -60z"/>
<path d="M2080 4633 c0 -48 -1 -48 62 -3 l36 26 -49 10 -49 11 0 -44z"/>
<path d="M2198 4643 c6 -2 18 -2 25 0 6 3 1 5 -13 5 -14 0 -19 -2 -12 -5z"/>
<path d="M2260 4630 c14 -4 34 -8 45 -8 16 0 15 2 -5 8 -14 4 -34 8 -45 8 -16
0 -15 -2 5 -8z"/>
<path d="M2338 4613 c7 -3 16 -2 19 1 4 3 -2 6 -13 5 -11 0 -14 -3 -6 -6z"/>
<path d="M2378 4603 c7 -3 16 -2 19 1 4 3 -2 6 -13 5 -11 0 -14 -3 -6 -6z"/>
<path d="M2468 4583 c7 -3 16 -2 19 1 4 3 -2 6 -13 5 -11 0 -14 -3 -6 -6z"/>
<path d="M2518 4573 c7 -3 16 -2 19 1 4 3 -2 6 -13 5 -11 0 -14 -3 -6 -6z"/>
<path d="M2558 4563 c7 -3 16 -2 19 1 4 3 -2 6 -13 5 -11 0 -14 -3 -6 -6z"/>
<path d="M3240 4563 c0 -5 -16 -7 -35 -5 -19 2 -35 2 -35 -1 0 -6 88 -67 96
-67 11 0 -2 74 -13 78 -7 2 -13 0 -13 -5z"/>
<path d="M2598 4553 c7 -3 16 -2 19 1 4 3 -2 6 -13 5 -11 0 -14 -3 -6 -6z"/>
<path d="M2230 4538 c0 -7 7 -148 15 -313 8 -165 15 -342 16 -393 2 -53 9
-105 16 -119 15 -30 17 -69 3 -78 -16 -10 -12 -101 5 -115 17 -14 20 -66 5
-75 -16 -10 -12 -111 5 -125 18 -15 19 -43 4 -69 -9 -13 -8 -108 3 -385 8
-201 18 -369 22 -373 8 -9 683 -82 756 -82 213 -2 423 125 513 309 98 199 118
486 58 799 -66 338 -233 603 -481 763 -115 74 -208 104 -565 184 -181 41 -340
76 -352 79 -15 3 -23 1 -23 -7z m362 -289 c11 7 23 10 26 6 4 -3 0 -10 -7 -14
-10 -6 -5 -11 18 -16 28 -6 31 -10 33 -48 2 -72 -3 -101 -21 -127 -17 -23 -61
-44 -48 -23 4 6 -19 14 -50 20 l-56 10 6 -206 c4 -114 2 -215 -3 -226 -6 -13
-9 18 -9 93 l-1 112 -49 0 c-27 0 -61 -4 -75 -10 -20 -7 -26 -6 -30 8 -3 9 -8
112 -12 228 l-7 210 37 -4 c20 -2 36 0 36 6 0 5 41 1 96 -11 79 -17 99 -19
116 -8z m128 -19 c0 -5 -4 -10 -10 -10 -5 0 -10 5 -10 10 0 6 5 10 10 10 6 0
10 -4 10 -10z m100 -20 c0 -5 -4 -10 -10 -10 -5 0 -10 5 -10 10 0 6 5 10 10
10 6 0 10 -4 10 -10z m-57 -52 c9 -72 -23 -158 -59 -158 -8 0 -13 4 -10 9 4 5
1 11 -4 13 -8 2 -7 20 1 57 6 29 8 71 5 91 -6 39 -6 39 28 37 32 -2 34 -4 39
-49z m101 -18 c9 -70 -25 -160 -60 -160 -8 0 -13 4 -10 9 4 5 1 11 -4 13 -8 2
-7 20 1 56 6 30 9 71 7 92 -3 37 -3 38 28 37 30 -2 32 -5 38 -47z m151 -15
c112 -49 261 -173 334 -279 67 -97 126 -255 146 -390 7 -41 11 -48 36 -53 16
-3 29 -12 29 -19 0 -8 -3 -14 -6 -14 -12 0 -50 24 -60 38 -9 12 -22 13 -60 8
-101 -15 -97 -17 -109 44 -30 149 -88 261 -181 354 -59 60 -151 121 -216 144
l-49 17 8 40 c4 22 8 65 8 96 l0 57 40 -13 c22 -7 58 -20 80 -30z m-137 -271
c180 -35 273 -89 345 -197 98 -148 123 -406 51 -538 -43 -77 -119 -119 -219
-119 -47 0 -336 38 -343 45 -3 3 -42 741 -42 803 l0 44 43 -7 c23 -4 97 -18
165 -31z m-554 -245 c-25 -28 -28 -17 -7 26 16 33 18 35 21 16 2 -13 -4 -31
-14 -42z m8 -81 c-6 -6 -15 -8 -19 -4 -4 4 -1 11 7 16 19 12 27 3 12 -12z m48
-153 c11 -13 10 -14 -4 -9 -12 4 -15 2 -11 -9 5 -11 0 -13 -19 -10 -32 6 -33
15 -3 29 12 7 23 12 23 13 1 0 7 -6 14 -14z m1128 -57 l3 -46 -80 -4 -79 -3
-4 42 c-4 53 13 63 97 60 l60 -2 3 -47z m-1138 -67 c0 -17 -4 -33 -10 -36 -5
-3 -10 0 -10 7 0 7 -3 23 -6 36 -5 16 -2 22 10 22 11 0 16 -9 16 -29z m154
-13 c3 -24 7 -119 10 -212 3 -92 8 -171 11 -174 4 -4 45 -11 93 -17 l87 -10 7
-44 c4 -24 3 -62 -2 -84 -10 -45 -46 -89 -58 -71 -4 7 -63 18 -132 26 -95 10
-124 16 -122 27 2 9 -4 12 -19 8 -11 -3 -18 -3 -15 0 3 4 2 11 -3 17 -5 6 -12
104 -16 217 -8 236 -17 212 88 225 l57 6 -6 64 c-8 73 11 93 20 22z m1044 -3
c3 -16 1 -18 -9 -7 -7 6 -21 12 -31 12 -10 0 -18 5 -18 11 0 20 55 5 58 -16z
m-72 -11 c18 -5 20 -12 17 -62 -2 -31 -11 -93 -19 -137 -45 -242 -217 -396
-465 -418 l-57 -5 1 99 c0 54 3 96 7 94 16 -10 145 17 188 39 103 53 156 140
175 286 9 73 14 90 31 99 23 11 90 14 122 5z m-662 -439 c18 -65 -5 -154 -44
-175 -15 -8 -20 -8 -16 -1 4 6 4 11 -1 11 -4 0 -8 46 -8 103 l0 102 32 -10
c18 -5 34 -18 37 -30z m98 1 c12 -17 9 -109 -3 -145 -6 -17 -19 -36 -29 -41
-23 -12 -33 -13 -26 -1 4 5 3 11 -1 13 -5 1 -7 46 -5 99 l3 96 27 -5 c15 -3
30 -10 34 -16z"/>
<path d="M2743 3606 c5 -88 8 -99 36 -135 17 -22 40 -59 51 -84 24 -55 44
-186 35 -237 l-6 -38 53 -11 c29 -5 71 -11 93 -13 37 -3 41 -1 65 42 22 40 25
56 25 150 0 131 -26 216 -87 285 -62 71 -125 105 -242 130 l-29 6 6 -95z"/>
<path d="M2648 4543 c7 -3 16 -2 19 1 4 3 -2 6 -13 5 -11 0 -14 -3 -6 -6z"/>
<path d="M2688 4533 c7 -3 16 -2 19 1 4 3 -2 6 -13 5 -11 0 -14 -3 -6 -6z"/>
<path d="M3287 4491 c-5 -22 1 -33 14 -25 12 7 12 44 0 44 -5 0 -11 -9 -14
-19z"/>
<path d="M3326 4475 c-4 -16 -3 -32 2 -37 6 -6 11 0 14 16 7 36 -8 54 -16 21z"/>
<path d="M3361 4448 c-12 -34 -6 -52 9 -28 10 15 14 60 6 60 -2 0 -9 -14 -15
-32z"/>
<path d="M3393 4419 c-13 -35 -10 -50 8 -32 6 6 9 23 7 38 l-3 28 -12 -34z"/>
<path d="M3426 4385 c-8 -31 -8 -34 1 -37 10 -4 23 51 13 57 -4 3 -11 -6 -14
-20z"/>
<path d="M3452 4345 c-8 -16 -8 -26 -1 -31 13 -8 15 -5 23 29 8 34 -7 36 -22
2z"/>
<path d="M3491 4322 c-14 -26 -14 -42 -1 -42 11 0 25 48 17 56 -3 3 -10 -3
-16 -14z"/>
<path d="M3517 4276 c-15 -22 -13 -36 4 -36 8 0 22 50 16 56 -2 3 -11 -6 -20
-20z"/>
<path d="M3551 4242 c-7 -13 -11 -28 -8 -35 2 -7 9 -2 16 11 7 13 11 28 8 35
-2 7 -9 2 -16 -11z"/>
<path d="M3570 4191 c-6 -13 -6 -22 -1 -26 9 -5 31 24 31 39 0 14 -20 4 -30
-13z"/>
<path d="M3601 4156 c-11 -13 -11 -20 -3 -28 8 -8 13 -7 18 5 10 27 0 41 -15
23z"/>
<path d="M3630 4109 c-13 -24 -4 -41 10 -19 10 16 13 40 5 40 -2 0 -9 -9 -15
-21z"/>
<path d="M3651 4063 c-9 -10 -10 -18 -2 -26 7 -7 12 -6 17 6 9 25 1 37 -15 20z"/>
<path d="M3676 4014 c-9 -22 3 -32 14 -14 12 19 12 30 1 30 -5 0 -12 -7 -15
-16z"/>
<path d="M3693 3965 c-8 -22 6 -33 17 -15 13 20 12 30 0 30 -6 0 -13 -7 -17
-15z"/>
<path d="M3720 3920 c-8 -5 -11 -12 -7 -16 4 -4 13 -2 19 4 15 15 7 24 -12 12z"/>
<path d="M3740 3870 c-8 -5 -11 -12 -7 -16 4 -4 13 -2 19 4 15 15 7 24 -12 12z"/>
<path d="M3751 3810 c0 -8 4 -24 9 -35 5 -13 9 -14 9 -5 0 8 -4 24 -9 35 -5
13 -9 14 -9 5z"/>
<path d="M3781 3719 c-1 -9 4 -30 10 -47 6 -17 21 -87 34 -154 13 -68 24 -112
24 -99 1 13 -10 78 -24 146 -24 120 -43 186 -44 154z"/>
<path d="M1406 3295 c-20 -13 -59 -34 -87 -46 -42 -19 -50 -25 -45 -43 3 -12
6 -38 6 -58 l0 -37 70 31 70 31 0 58 c0 48 4 60 22 73 12 9 18 16 12 16 -6 0
-28 -11 -48 -25z"/>
<path d="M1848 3083 c-10 -2 -18 -9 -18 -14 0 -6 8 -5 20 1 11 6 20 13 20 15
0 3 -1 4 -2 4 -2 -1 -11 -3 -20 -6z"/>
<path d="M1384 3069 c-11 -6 -24 -25 -30 -42 -8 -29 -13 -32 -41 -29 l-33 3 0
-51 c0 -38 3 -51 13 -47 6 3 38 15 69 28 l58 24 0 63 c0 65 -2 67 -36 51z"/>
<path d="M1850 2871 c-18 -5 -21 -9 -11 -15 8 -5 19 -2 29 8 9 9 14 16 12 15
-3 -1 -16 -4 -30 -8z"/>
<path d="M1383 2850 c-13 -5 -23 -18 -23 -29 0 -25 -17 -36 -50 -33 -24 3 -25
1 -22 -42 l4 -45 36 15 c21 9 52 21 70 27 31 10 32 12 32 64 0 56 -5 60 -47
43z"/>
<path d="M3797 2643 c-4 -3 -7 -13 -7 -22 1 -13 3 -13 11 2 11 19 8 33 -4 20z"/>
<path d="M3774 2589 c-4 -7 1 -18 11 -26 36 -26 49 -9 16 21 -14 13 -21 14
-27 5z"/>
<path d="M3756 2541 c-6 -9 42 -46 50 -39 5 6 -26 48 -36 48 -5 0 -11 -4 -14
-9z"/>
<path d="M3736 2502 c-3 -5 8 -19 24 -31 34 -25 43 -6 12 22 -21 19 -28 21
-36 9z"/>
<path d="M3485 2465 c-22 -19 -69 -50 -105 -69 -72 -38 -281 -95 -357 -97
l-48 -2 40 -6 39 -6 -44 -35 -44 -35 58 -7 c129 -16 257 25 369 120 47 40 147
154 147 168 0 11 -19 0 -55 -31z"/>
<path d="M2170 2307 l0 -56 45 14 c41 12 76 10 301 -11 l255 -25 76 21 c110
30 117 37 47 44 -77 8 -546 53 -646 62 l-78 6 0 -55z"/>
</g>
</svg>
